<svg width="240" height="240" viewBox="0 0 240 240" fill="none" xmlns="http://www.w3.org/2000/svg">
  <rect x="40" y="70" width="100" height="100" rx="24" fill="#0F172A" stroke="#F472B6" stroke-width="3"></rect>
  <circle cx="70" cy="100" r="6" fill="#F9A8D4"></circle>
  <circle cx="110" cy="140" r="6" fill="#F9A8D4"></circle>
  <circle cx="90" cy="120" r="6" fill="#F9A8D4"></circle>

  <rect x="110" y="40" width="90" height="70" rx="18" fill="#020617" stroke="#38BDF8" stroke-width="2"></rect>
  <circle cx="130" cy="65" r="4" fill="#38BDF8"></circle>
  <circle cx="143" cy="65" r="4" fill="#38BDF8"></circle>
  <circle cx="156" cy="65" r="4" fill="#38BDF8"></circle>

  <path d="M130 92H175" stroke="#E5E7EB" stroke-width="2.2" stroke-linecap="round"></path>
  <path d="M130 102H160" stroke="#6B7280" stroke-width="2.2" stroke-linecap="round"></path>

  <path d="M45 60C55 45 74 35 96 35C130 35 158 54 165 82" stroke="#1E293B" stroke-width="3" stroke-linecap="round" stroke-dasharray="6 8"></path>

  <circle cx="180" cy="160" r="22" fill="#F472B6"></circle>
  <path d="M173 160L179 166L189 153" stroke="#0F172A" stroke-width="3" stroke-linecap="round" stroke-linejoin="round"></path>

  <defs>
    <filter id="shadow" x="30" y="60" width="120" height="120" filterUnits="userSpaceOnUse" color-interpolation-filters="sRGB">
      <feDropShadow dx="0" dy="8" stdDeviation="10" flood-color="#000000" flood-opacity="0.35"></feDropShadow>
    </filter>
  </defs>
</svg>
