<svg width="240" height="240" viewBox="0 0 240 240" fill="none" xmlns="http://www.w3.org/2000/svg">
  <rect x="45" y="50" width="150" height="130" rx="24" fill="#020617" stroke="#38BDF8" stroke-width="3"></rect>
  <rect x="45" y="70" width="150" height="26" rx="10" fill="#0F172A"></rect>
  <circle cx="75" cy="83" r="5" fill="#F97316"></circle>
  <circle cx="95" cy="83" r="5" fill="#FBBF24"></circle>
  <circle cx="115" cy="83" r="5" fill="#22C55E"></circle>

  <rect x="65" y="110" width="40" height="40" rx="12" fill="#0B1120" stroke="#38BDF8" stroke-width="2"></rect>
  <path d="M85 118V138" stroke="#38BDF8" stroke-width="2.5" stroke-linecap="round"></path>
  <path d="M77 126H93" stroke="#38BDF8" stroke-width="2.5" stroke-linecap="round"></path>

  <rect x="115" y="110" width="60" height="10" rx="5" fill="#1E293B"></rect>
  <rect x="115" y="128" width="50" height="8" rx="4" fill="#1F2937"></rect>
  <rect x="115" y="142" width="36" height="8" rx="4" fill="#1F2937"></rect>

  <circle cx="175" cy="65" r="20" fill="#F472B6"></circle>
  <path d="M170 60C170 57.2 172.2 55 175 55C177.8 55 180 57.2 180 60C180 63.5 176.5 64.7 175.4 67.2C175.1 67.9 175 68.3 175 69" stroke="#0F172A" stroke-width="2.3" stroke-linecap="round"></path>
  <circle cx="175" cy="74" r="2.6" fill="#0F172A"></circle>
</svg>
